<!-- Generated by IcoMoon.io -->
<svg version="1.1" xmlns="http://www.w3.org/2000/svg" width="33" height="32" viewBox="0 0 33 32">
<title>Vector</title>
<path fill="#f38120" d="M32.887 14.211l-14.996-13.76c-0.303-0.281-0.709-0.453-1.156-0.453s-0.854 0.172-1.157 0.454l-14.995 13.759c-0.348 0.318-0.566 0.773-0.566 1.28 0 0.955 0.774 1.73 1.729 1.731h2.386v13.789c0 0.538 0.436 0.989 0.989 0.989h8.218c0.553 0 0.989-0.436 0.989-0.989v-8.378h4.844v8.378c0 0.538 0.436 0.989 0.975 0.989h8.233c0.538 0 0.975-0.436 0.975-0.989v-13.789h2.4c0.727 0 1.338-0.436 1.6-1.105 0.072-0.184 0.114-0.397 0.114-0.619 0-0.501-0.211-0.953-0.549-1.271l-0.001-0.001z"></path>
</svg>
